<?xml version="1.0" encoding="UTF-8"?>
<svg id="Layer_2" data-name="Layer 2" xmlns="http://www.w3.org/2000/svg" viewBox="0 0 1000.4 171.1">
  <defs><style>.cls-1{fill:#223d90}</style></defs>
  <g id="Layer_1-2" data-name="Layer 1"><g>
    <polygon class="cls-1" points="348.32 .2 282.09 170.91 317.37 170.91 330.38 137.4 376.9 137.4 389.72 104.28 343.19 104.28 366.65 43.96 415.93 170.91 451.22 170.91 384.98 .2 348.32 .2"/>
    <polygon class="cls-1" points="162.63 .39 162.63 33.31 206 33.31 206 171.1 238.92 171.1 238.92 33.31 282.09 33.31 282.09 .39 162.63 .39"/>
    <path class="cls-1" d="M60.91.39C37.06.39,15.57,10.25.2,25.82l23.26,23.26c9.46-9.66,22.67-15.77,37.45-15.77,28.78,0,52.24,23.46,52.24,52.24s-23.46,52.24-52.24,52.24c-14.59,0-27.99-6.11-37.45-15.77L0,145.28c15.38,15.77,37.06,25.43,60.72,25.43,47.11,0,85.36-38.24,85.36-85.16S107.83.39,60.91.39"/>
    <polygon class="cls-1" points="108.42 68.99 39.42 68.99 39.82 102.11 95.61 102.11 108.42 68.99"/>
    <polygon class="cls-1" points="850 .2 850 170.91 883.31 170.91 883.31 102.11 953.69 102.11 966.5 69 883.31 69 883.31 .2 850 .2"/>
    <polygon class="cls-1" points="967.09 .2 967.09 76.88 967.09 170.91 1000.4 170.91 1000.4 .2 967.09 .2"/>
    <path class="cls-1" d="M783.96,85.36c0,28.78-23.46,52.24-52.24,52.24s-52.24-23.46-52.24-52.24,23.46-52.24,52.24-52.24,52.24,23.46,52.24,52.24M816.88,85.36c.2-47.11-38.05-85.36-85.16-85.36s-85.16,38.24-85.16,85.36,38.24,85.16,85.16,85.16,85.16-38.24,85.16-85.16"/>
    <polygon class="cls-1" points="533.81 .2 467.58 170.91 502.67 170.91 551.95 43.96 601.23 170.91 636.51 170.91 570.28 .2 533.81 .2"/>
  </g></g>
</svg>