<?xml version="1.0" encoding="UTF-8"?><svg id="Layer_1" xmlns="http://www.w3.org/2000/svg" version="1.1" viewBox="0 0 1525.4 310.8"><defs><style>.st0{fill:#69caff}</style></defs><g id="Layer_11"><g><path class="st0" d="M181.5,126.1c0,23.2-15,36.9-44.7,36.9h-39.6v-74.1h39.6c29.7,0,44.7,13.7,44.7,37.2Z"/><path class="st0" d="M726.2,0H0v310.8h726.2V0h0ZM139.5,203.3h-42.3v58.9h-48.6V48.6h90.9c56.1,0,91.2,29.6,91.2,77.5s-35.1,77.2-91.2,77.2ZM451.8,113.5h-31.2c-14.1-15.9-31.8-24.2-52.8-24.2-39.3,0-67.2,27.1-67.2,66.1s27.9,66.1,67.2,66.1,38.7-8.3,52.8-24.5h31.2v28.3c-19.8,23.9-50.1,36.9-86.7,36.9-65.1,0-113.7-44.5-113.7-106.8s48.6-106.8,114-106.8,66.6,13,86.4,36.6v28.3h0ZM677.6,262.2h-55.2l-57.5-86h-33.6v86h-48.3V48.6h48.3v86.4h34.8l56.3-86.4h55.2l-73.7,103.1,73.7,110.5Z"/><g><path d="M822.2,71.7c0,12.3-9.2,20-24,20h-11.1v15.2h-12.8v-55.3h23.9c14.8,0,24,7.7,24,20.1h0ZM809.3,71.7c0-6.1-3.9-9.6-11.8-9.6h-10.4v19.2h10.4c7.8,0,11.8-3.6,11.8-9.6Z"/><path d="M871,89h-32.4c1.2,5.3,5.7,8.5,12.2,8.5s7.7-1.3,10.7-4.1l6.6,7.1c-3.9,4.5-9.9,6.9-17.5,6.9-14.7,0-24.2-9.2-24.2-21.9s9.7-21.9,22.7-21.9,22.1,8.4,22.1,22M838.4,81.9h20.9c-.9-5.4-4.9-8.8-10.4-8.8s-9.6,3.4-10.5,8.8Z"/><path d="M877,85.6c0-12.8,9.9-22.6,23.7-21.9s16,3.9,19,10.8l-9.6,5.1c-2.3-4-5.7-5.8-9.6-5.8-6.2,0-11.1,4.3-11.1,11.8s4.9,11.8,11.1,11.8,7.3-1.7,9.6-5.8l9.6,5.2c-3.1,6.8-10.1,10.7-19,10.7-13.8,0-23.7-9.1-23.7-21.9h0Z"/><path d="M969.5,64.4v42.5h-12.3v-32.4h-17.7v32.4h-12.2v-42.5h42.2Z"/><path d="M1023.9,64.4l-19.2,45.1c-4.1,10.3-10,13.3-17.6,13.3s-9.1-1.4-11.8-3.9l4.5-8.8c1.9,1.7,4.5,2.7,6.9,2.7s5.3-1.5,6.9-5.3l.2-.4-18.4-42.8h12.7l11.9,28.8,12-28.8h11.9Z"/><path d="M1074.3,87.2c0,12.4-9.7,20.6-23.2,20.6s-23.8-9.2-23.8-28.1,7.1-27.2,22.7-30.4l20.2-4,1.7,10.6-17.8,3.6c-9.7,1.9-14.1,6-14.9,14.1,3.6-3.9,8.8-6.2,15.1-6.2,12.2,0,20.2,8,20.2,19.9h-.2,0ZM1061.7,87.4c0-6.5-4.2-10.5-10.5-10.5s-10.7,4-10.7,10.5,4.4,10.9,10.7,10.9,10.5-4.7,10.5-10.9Z"/><path d="M1122.8,64.4v42.5h-12.3v-32.4h-13.4l-.4,7.5c-.6,15.2-3.1,25.7-13.6,25.7s-3.9-.3-6.4-.9l.6-10.1c.6,0,1.3.2,1.8.2,5.8,0,6.3-7.3,6.7-15.4l.6-17.1h36.4Z"/><path d="M1134.7,64.4h12.2v25.3l20.7-25.3h11.3v42.5h-12.2v-25.3l-20.6,25.3h-11.4v-42.5Z"/><path d="M1209.5,90.8h-6.4v16.1h-12.3v-42.5h12.3v16.5h6.6l11.5-16.5h13.1l-14.8,20.4,15.9,22.1h-14.5l-11.4-16.1h0Z"/><path d="M1277.7,82.6v24.2h-11.5v-5.3c-2.3,3.9-6.7,5.9-12.9,5.9-10,0-15.9-5.5-15.9-12.9s5.3-12.7,18.2-12.7h9.8c0-5.3-3.2-8.4-9.8-8.4s-9.2,1.5-12.2,3.9l-4.4-8.6c4.7-3.3,11.5-5.1,18.3-5.1,12.9,0,20.5,6,20.5,18.9h0ZM1265.3,93.5v-4.3h-8.4c-5.8,0-7.6,2.1-7.6,5s2.6,5.1,6.9,5.1,7.7-1.9,9.1-5.8h0Z"/><path d="M1288.4,64.4h12.2v16.6h18.5v-16.6h12.3v42.5h-12.3v-15.9h-18.5v15.9h-12.2v-42.5Z"/><path d="M1339.8,85.6c0-12.8,9.9-21.9,23.7-21.9s16,3.9,19,10.8l-9.6,5.1c-2.3-4-5.7-5.8-9.6-5.8-6.2,0-11.1,4.3-11.1,11.8s4.9,11.8,11.1,11.8,7.3-1.7,9.6-5.8l9.6,5.2c-3.1,6.8-10.1,10.7-19,10.7-13.8,0-23.7-9.1-23.7-21.9h0Z"/><path d="M1408.7,90.8h-6.4v16.1h-12.3v-42.5h12.3v16.5h6.6l11.5-16.5h13.1l-14.8,20.4,15.9,22.1h-14.5l-11.4-16.1h0Z"/><path d="M1476.9,82.6v24.2h-11.5v-5.3c-2.3,3.9-6.7,5.9-12.9,5.9-10,0-15.9-5.5-15.9-12.9s5.3-12.7,18.2-12.7h9.8c0-5.3-3.2-8.4-9.8-8.4s-9.2,1.5-12.2,3.9l-4.4-8.6c4.7-3.3,11.5-5.1,18.3-5.1,12.9,0,20.5,6,20.5,18.9h0ZM1464.6,93.5v-4.3h-8.4c-5.8,0-7.6,2.1-7.6,5s2.6,5.1,6.9,5.1,7.7-1.9,9.1-5.8h0Z"/><path d="M1525.4,64.4v42.5h-11v-12.2h-9.1l-8.1,12.2h-13.1l9.7-13.9c-5.8-2.3-9.1-6.7-9.1-12.9,0-10.1,7.8-15.6,20.3-15.6h20.4,0ZM1497.4,80.4c0,4.3,2.7,6.1,7.8,6.1h9.2v-12.1h-9.1c-5.1,0-8,1.7-8,6h0Z"/><path d="M770.5,158.2c0-16.7,12.8-28.6,30-28.6s17.5,3.5,22.7,9.8l-8.2,7.6c-3.7-4.3-8.4-6.5-13.9-6.5-10.3,0-17.7,7.3-17.7,17.7s7.3,17.7,17.7,17.7,10.2-2.2,13.9-6.6l8.2,7.6c-5.2,6.4-13.2,9.9-22.8,9.9-17.1,0-29.9-11.9-29.9-28.6Z"/><path d="M865.2,153.5h-14.4v32.4h-12.2v-32.4h-14.4v-10.1h41v10.1Z"/><path d="M918,164.6c0,13.3-9.2,21.9-21.2,21.9s-9.6-1.7-12.8-5.1v19.8h-12.3v-57.8h11.8v4.9c3.1-3.7,7.7-5.5,13.3-5.5,11.9,0,21.2,8.5,21.2,21.9h0ZM905.5,164.6c0-7.3-4.7-11.8-10.8-11.8s-10.8,4.4-10.8,11.8,4.7,11.8,10.8,11.8,10.8-4.4,10.8-11.8Z"/><path d="M923.1,164.6c0-12.8,9.9-21.9,23.4-21.9s23.3,9.1,23.3,21.9-9.8,21.9-23.3,21.9-23.4-9.1-23.4-21.9ZM957.3,164.6c0-7.3-4.7-11.8-10.8-11.8s-10.9,4.4-10.9,11.8,4.7,11.8,10.9,11.8,10.8-4.4,10.8-11.8Z"/><path d="M978.3,143.4h12.2v25.3l20.7-25.3h11.3v42.5h-12.2v-25.3l-20.6,25.3h-11.4v-42.5Z"/><path d="M1070,153.5h-14.4v32.4h-12.2v-32.4h-14.4v-10.1h41v10.1Z"/><path d="M1115.9,168.1h-32.1c1.2,5.3,5.7,8.5,12.2,8.5s7.7-1.3,10.7-4.1l6.6,7.1c-3.9,4.5-9.9,6.9-17.5,6.9-14.7,0-24.2-9.2-24.2-21.9s9.7-21.9,22.7-21.9,22.1,8.4,22.1,22-.2,2.3-.2,3.3h-.3,0ZM1083.6,160.9h20.9c-.9-5.4-4.9-8.8-10.4-8.8s-9.6,3.4-10.5,8.8Z"/><path d="M1166,143.4v42.5h-12.3v-32.4h-13.4l-.4,7.5c-.6,15.2-3.1,25.7-13.6,25.7s-3.9-.3-6.4-.9l.6-10.1c.6,0,1.3.2,1.8.2,5.8,0,6.3-7.3,6.7-15.4l.6-17.1h36.4Z"/><path d="M1218,171.1c0,9.4-6.9,14.8-18.8,14.8h-21.3v-42.6h12.2v13.6h10.7c11.1,0,17.1,5.2,17.1,14.1h.1ZM1205.5,171c0-4.2-2.6-5.9-7.3-6h-8v12.2h8c4.7,0,7.3-2.1,7.3-6.2Z"/><path d="M1225.7,143.4h12.2v16.6h18.5v-16.6h12.3v42.5h-12.3v-15.9h-18.5v15.9h-12.2v-42.5Z"/><path d="M1317.5,161.6v24.2h-11.5v-5.3c-2.3,3.9-6.7,5.9-12.9,5.9-10,0-15.9-5.5-15.9-12.9s5.3-12.7,18.2-12.7h9.8c0-5.3-3.2-8.4-9.8-8.4s-9.2,1.5-12.2,3.9l-4.4-8.6c4.7-3.3,11.5-5.1,18.3-5.1,12.9,0,20.5,6,20.5,18.9h0ZM1305.2,172.5v-4.3h-8.4c-5.8,0-7.6,2.1-7.6,5s2.6,5.1,6.9,5.1,7.7-1.9,9.1-5.8h0Z"/><path d="M1366,143.4v42.5h-11v-12.2h-9.1l-8.1,12.2h-13.1l9.7-13.9c-5.8-2.3-9.1-6.7-9.1-12.9,0-10.1,7.8-15.6,20.3-15.6h20.4,0ZM1337.9,159.4c0,4.3,2.7,6.1,7.8,6.1h9.2v-12.1h-9.1c-5.1,0-8,1.7-8,6h0Z"/><path d="M795.7,242.6h-8.8v22.3h-12.7v-55.3h12.7v22.3h9.2l14.5-22.3h13.5l-18.1,26.7,18.6,28.6h-14.5l-14.4-22.3h0Z"/><path d="M825.6,243.6c0-12.8,9.9-21.9,23.4-21.9s23.3,9.1,23.3,21.9-9.8,21.9-23.3,21.9-23.4-9.1-23.4-21.9ZM859.7,243.6c0-7.3-4.7-11.8-10.8-11.8s-10.9,4.4-10.9,11.8,4.7,11.8,10.9,11.8,10.8-4.4,10.8-11.8Z"/><path d="M922.1,264.9v-25.4l-12.7,21.3h-5.2l-12.4-21.4v25.5h-11.1v-42.5h12.9l13.6,24.6,14.5-24.6h11.5l.2,42.5h-11.3Z"/><path d="M987.3,222.4v42.5h-12.3v-32.4h-17.7v32.4h-12.2v-42.5h42.2Z"/><path d="M1036.1,240.6v24.2h-11.5v-5.3c-2.3,3.9-6.7,5.9-12.9,5.9-9.9,0-15.9-5.5-15.9-12.9s5.3-12.7,18.2-12.7h9.8c0-5.3-3.2-8.4-9.8-8.4s-9.2,1.5-12.2,3.9l-4.4-8.6c4.7-3.3,11.5-5.1,18.3-5.1,12.9,0,20.4,6,20.4,18.9h0ZM1023.8,251.5v-4.3h-8.5c-5.8,0-7.6,2.1-7.6,5s2.6,5.1,6.9,5.1,7.7-1.9,9.1-5.8h0Z"/><path d="M1046.9,222.4h12.2v16.6h18.5v-16.6h12.3v42.5h-12.3v-15.9h-18.5v15.9h-12.2v-42.5Z"/><path d="M1101.7,222.4h12.2v25.3l20.7-25.3h11.3v42.5h-12.2v-25.3l-20.6,25.3h-11.4v-42.5Z"/><path d="M1195.6,222.4v42.5h-11v-12.2h-9.1l-8.1,12.2h-13.1l9.7-13.9c-5.8-2.3-9.1-6.7-9.1-12.9,0-10.1,7.8-15.6,20.3-15.6h20.4,0ZM1167.5,238.4c0,4.3,2.7,6.1,7.8,6.1h9.2v-12.1h-9.1c-5.1,0-8,1.7-8,6h0Z"/></g></g></g></svg>