<?xml version="1.0" encoding="UTF-8"?>
<svg xmlns="http://www.w3.org/2000/svg" version="1.1" viewBox="0 0 677.6 255.1">
  <defs>
    <style>
      .cls-1 {
        fill: #233c91;
      }
    </style>
  </defs>
  <!-- Generator: Adobe Illustrator 28.7.1, SVG Export Plug-In . SVG Version: 1.2.0 Build 142)  -->
  <g>
    <g id="_Слой_1" data-name="Слой_1">
      <path class="cls-1" d="M261.7,84.2l-33.6,86.6h17.9l6.6-17h23.6l6.5-16.8h-23.6l11.9-30.6,25,64.4h17.9l-33.6-86.6s-18.6,0-18.6,0ZM228.1,84.3h-60.6v16.7h22v69.9h16.7v-69.9h21.9v-16.7h0ZM115.9,84.3c-12.1,0-23,4.9-30.8,12.9l11.8,11.8c4.8-4.9,11.5-8,19-8,14.6,0,26.5,11.9,26.5,26.5s-11.9,26.5-26.5,26.5-14.2-3.1-19-8l-11.9,11.9c7.8,8,18.8,12.9,30.8,12.9,23.9,0,43.3-19.4,43.3-43.2s-19.4-43.3-43.2-43.3M140,119.2h-35l.2,16.8h28.3l6.5-16.8ZM533.1,84.2h-16.9v86.6h16.9v-34.8h35.7l6.5-16.8h-42.2v-35ZM575.6,84.2v86.6h16.9v-86.6s-16.9,0-16.9,0ZM456.2,84.2c-23.9,0-43.2,19.4-43.2,43.2s19.4,43.2,43.2,43.2,43.2-19.4,43.2-43.2c0-23.9-19.3-43.2-43.2-43.2M456.2,153.9c-14.6,0-26.5-11.9-26.5-26.5s11.9-26.5,26.5-26.5,26.5,11.9,26.5,26.5-11.9,26.5-26.5,26.5M355.8,84.2l-33.6,86.6h17.8l25-64.4,25,64.4h17.9l-33.6-86.6s-18.5,0-18.5,0Z"/>
    </g>
  </g>
</svg>