<?xml version="1.0" encoding="UTF-8"?><svg xmlns="http://www.w3.org/2000/svg" viewBox="0 0 300 800"><rect fill="#223e90" y="266.67" width="300" height="266.67"/><path fill="#223e90" d="M89.62 163.94v19.4h81.98l7.53-19.4H89.62Zm32.67-40.34V143h64.86l7.53-19.4h-72.39ZM89.62 83.33v19.4h113.23l7.53-19.4H89.62Z"/><path fill="#1d1d1b" d="M89.62 698.15v19.4h81.98l7.53-19.4H89.62Zm32.67-40.34v19.4h64.86l7.53-19.4h-72.39Zm-32.67-40.27v19.4h113.23l7.53-19.4H89.62Z"/><path fill="#fff" d="M89.62 430.6V450h81.98l7.53-19.4H89.62Zm32.67-40.33v19.4h64.86l7.53-19.4h-72.39ZM89.62 350v19.4h113.23l7.53-19.4H89.62Z"/></svg>